<mxfile host="Electron" agent="Mozilla/5.0 (Windows NT 10.0; Win64; x64) AppleWebKit/537.36 (KHTML, like Gecko) draw.io/27.0.9 Chrome/134.0.6998.205 Electron/35.4.0 Safari/537.36" version="27.0.9">
  <diagram name="Page-1" id="MyRDOYuVywx_606h8wVi">
    <mxGraphModel dx="983" dy="602" grid="1" gridSize="10" guides="1" tooltips="1" connect="1" arrows="1" fold="1" page="1" pageScale="1" pageWidth="827" pageHeight="1169" math="0" shadow="0">
      <root>
        <mxCell id="0" />
        <mxCell id="1" parent="0" />
        <mxCell id="3_adnTZoo-hlLVgFGM4k-26" value="" style="endArrow=classic;html=1;rounded=0;entryX=0.939;entryY=0.257;entryDx=0;entryDy=0;entryPerimeter=0;exitX=0.144;exitY=-0.122;exitDx=0;exitDy=0;exitPerimeter=0;" parent="1" source="3_adnTZoo-hlLVgFGM4k-25" target="3_adnTZoo-hlLVgFGM4k-23" edge="1">
          <mxGeometry width="50" height="50" relative="1" as="geometry">
            <mxPoint x="330" y="380" as="sourcePoint" />
            <mxPoint x="370" y="350" as="targetPoint" />
          </mxGeometry>
        </mxCell>
        <mxCell id="3_adnTZoo-hlLVgFGM4k-23" value="" style="rounded=0;whiteSpace=wrap;html=1;fillColor=none;" parent="1" vertex="1">
          <mxGeometry x="324" y="330" width="60" height="35" as="geometry" />
        </mxCell>
        <mxCell id="3_adnTZoo-hlLVgFGM4k-22" value="" style="rounded=0;whiteSpace=wrap;html=1;fillColor=none;" parent="1" vertex="1">
          <mxGeometry x="310" y="260" width="60" height="35" as="geometry" />
        </mxCell>
        <mxCell id="60_dA6ctWiAmH7DqmOU7-38" value="" style="edgeStyle=orthogonalEdgeStyle;rounded=0;orthogonalLoop=1;jettySize=auto;html=1;" parent="1" source="60_dA6ctWiAmH7DqmOU7-1" target="60_dA6ctWiAmH7DqmOU7-37" edge="1">
          <mxGeometry relative="1" as="geometry" />
        </mxCell>
        <mxCell id="60_dA6ctWiAmH7DqmOU7-1" value="GRF2133" style="verticalLabelPosition=middle;shadow=0;dashed=0;align=center;html=1;verticalAlign=middle;shape=mxgraph.electrical.abstract.amplifier;labelPosition=center;fontSize=5;" parent="1" vertex="1">
          <mxGeometry x="360" y="130" width="50" height="50" as="geometry" />
        </mxCell>
        <mxCell id="60_dA6ctWiAmH7DqmOU7-33" style="edgeStyle=orthogonalEdgeStyle;rounded=0;orthogonalLoop=1;jettySize=auto;html=1;entryX=0;entryY=0.5;entryDx=0;entryDy=0;" parent="1" source="60_dA6ctWiAmH7DqmOU7-2" target="60_dA6ctWiAmH7DqmOU7-32" edge="1">
          <mxGeometry relative="1" as="geometry">
            <Array as="points">
              <mxPoint x="80" y="260" />
            </Array>
          </mxGeometry>
        </mxCell>
        <mxCell id="60_dA6ctWiAmH7DqmOU7-2" value="" style="verticalLabelPosition=bottom;shadow=0;dashed=0;align=center;html=1;verticalAlign=top;shape=mxgraph.electrical.radio.aerial_-_antenna_1;" parent="1" vertex="1">
          <mxGeometry x="40" y="40" width="80" height="100" as="geometry" />
        </mxCell>
        <mxCell id="3_adnTZoo-hlLVgFGM4k-13" style="edgeStyle=orthogonalEdgeStyle;rounded=0;orthogonalLoop=1;jettySize=auto;html=1;exitX=1;exitY=0.8;exitDx=0;exitDy=0;exitPerimeter=0;" parent="1" source="60_dA6ctWiAmH7DqmOU7-32" target="3_adnTZoo-hlLVgFGM4k-9" edge="1">
          <mxGeometry relative="1" as="geometry">
            <Array as="points">
              <mxPoint x="290" y="308" />
              <mxPoint x="290" y="365" />
            </Array>
          </mxGeometry>
        </mxCell>
        <mxCell id="60_dA6ctWiAmH7DqmOU7-32" value="SP4T&lt;div&gt;BGSA14GN10E6327XTSA1&lt;/div&gt;" style="rounded=0;whiteSpace=wrap;html=1;points=[[0,0,0,0,0],[0,0.25,0,0,0],[0,0.5,0,0,0],[0,0.75,0,0,0],[0,1,0,0,0],[0.25,0,0,0,0],[0.25,1,0,0,0],[0.5,0,0,0,0],[0.5,1,0,0,0],[0.75,0,0,0,0],[0.75,1,0,0,0],[1,0,0,0,0],[1,0.2,0,0,0],[1,0.4,0,0,0],[1,0.6,0,0,0],[1,0.8,0,0,0],[1,1,0,0,0]];" parent="1" vertex="1">
          <mxGeometry x="130" y="180" width="100" height="160" as="geometry" />
        </mxCell>
        <mxCell id="60_dA6ctWiAmH7DqmOU7-35" style="edgeStyle=orthogonalEdgeStyle;rounded=0;orthogonalLoop=1;jettySize=auto;html=1;exitX=1;exitY=0.2;exitDx=0;exitDy=0;exitPerimeter=0;entryX=0;entryY=0.5;entryDx=0;entryDy=0;entryPerimeter=0;" parent="1" source="60_dA6ctWiAmH7DqmOU7-32" target="60_dA6ctWiAmH7DqmOU7-1" edge="1">
          <mxGeometry relative="1" as="geometry">
            <Array as="points">
              <mxPoint x="290" y="212" />
              <mxPoint x="290" y="155" />
            </Array>
          </mxGeometry>
        </mxCell>
        <mxCell id="60_dA6ctWiAmH7DqmOU7-37" value="B7506&amp;nbsp;" style="verticalLabelPosition=middle;shadow=0;dashed=0;align=center;html=1;verticalAlign=middle;shape=mxgraph.electrical.logic_gates.bandpass_filter;labelPosition=center;fontSize=5;" parent="1" vertex="1">
          <mxGeometry x="450" y="132" width="52" height="46" as="geometry" />
        </mxCell>
        <mxCell id="60_dA6ctWiAmH7DqmOU7-39" value="SP4T&lt;div&gt;BGSA14GN10E6327XTSA1&lt;/div&gt;" style="rounded=0;whiteSpace=wrap;html=1;points=[[0,0,0,0,0],[0,0.2,0,0,0],[0,0.4,0,0,0],[0,0.6,0,0,0],[0,0.8,0,0,0],[0,1,0,0,0],[0.25,0,0,0,0],[0.25,1,0,0,0],[0.5,0,0,0,0],[0.5,1,0,0,0],[0.75,0,0,0,0],[0.75,1,0,0,0],[1,0,0,0,0],[1,0.2,0,0,0],[1,0.4,0,0,0],[1,0.6,0,0,0],[1,0.8,0,0,0],[1,1,0,0,0]];fontStyle=1" parent="1" vertex="1">
          <mxGeometry x="640" y="180" width="100" height="160" as="geometry" />
        </mxCell>
        <mxCell id="60_dA6ctWiAmH7DqmOU7-40" style="edgeStyle=orthogonalEdgeStyle;rounded=0;orthogonalLoop=1;jettySize=auto;html=1;entryX=0;entryY=0.2;entryDx=0;entryDy=0;entryPerimeter=0;" parent="1" source="60_dA6ctWiAmH7DqmOU7-37" target="60_dA6ctWiAmH7DqmOU7-39" edge="1">
          <mxGeometry relative="1" as="geometry" />
        </mxCell>
        <mxCell id="60_dA6ctWiAmH7DqmOU7-44" value="" style="edgeStyle=orthogonalEdgeStyle;rounded=0;orthogonalLoop=1;jettySize=auto;html=1;" parent="1" source="60_dA6ctWiAmH7DqmOU7-41" target="60_dA6ctWiAmH7DqmOU7-43" edge="1">
          <mxGeometry relative="1" as="geometry" />
        </mxCell>
        <mxCell id="60_dA6ctWiAmH7DqmOU7-41" value="B7506&amp;nbsp;" style="verticalLabelPosition=middle;shadow=0;dashed=0;align=center;html=1;verticalAlign=middle;shape=mxgraph.electrical.logic_gates.bandpass_filter;labelPosition=center;fontSize=5;" parent="1" vertex="1">
          <mxGeometry x="351" y="202" width="52" height="46" as="geometry" />
        </mxCell>
        <mxCell id="60_dA6ctWiAmH7DqmOU7-42" style="edgeStyle=orthogonalEdgeStyle;rounded=0;orthogonalLoop=1;jettySize=auto;html=1;exitX=1;exitY=0.4;exitDx=0;exitDy=0;exitPerimeter=0;entryX=0;entryY=0.5;entryDx=0;entryDy=0;entryPerimeter=0;" parent="1" source="60_dA6ctWiAmH7DqmOU7-32" target="60_dA6ctWiAmH7DqmOU7-41" edge="1">
          <mxGeometry relative="1" as="geometry" />
        </mxCell>
        <mxCell id="60_dA6ctWiAmH7DqmOU7-43" value="&#xa;&lt;span style=&quot;color: rgb(255, 255, 255); font-family: Helvetica; font-style: normal; font-variant-ligatures: normal; font-variant-caps: normal; font-weight: 400; letter-spacing: normal; orphans: 2; text-align: center; text-indent: 0px; text-transform: none; widows: 2; word-spacing: 0px; -webkit-text-stroke-width: 0px; white-space: nowrap; background-color: rgb(27, 29, 30); text-decoration-thickness: initial; text-decoration-style: initial; text-decoration-color: initial; float: none; display: inline !important;&quot;&gt;GRF2133&lt;/span&gt;&#xa;&#xa;" style="verticalLabelPosition=middle;shadow=0;dashed=0;align=center;html=1;verticalAlign=middle;shape=mxgraph.electrical.abstract.amplifier;labelPosition=center;fontSize=5;" parent="1" vertex="1">
          <mxGeometry x="452" y="200" width="50" height="50" as="geometry" />
        </mxCell>
        <mxCell id="60_dA6ctWiAmH7DqmOU7-45" style="edgeStyle=orthogonalEdgeStyle;rounded=0;orthogonalLoop=1;jettySize=auto;html=1;entryX=0;entryY=0.4;entryDx=0;entryDy=0;entryPerimeter=0;" parent="1" source="60_dA6ctWiAmH7DqmOU7-43" target="60_dA6ctWiAmH7DqmOU7-39" edge="1">
          <mxGeometry relative="1" as="geometry">
            <Array as="points">
              <mxPoint x="590" y="225" />
              <mxPoint x="590" y="244" />
            </Array>
          </mxGeometry>
        </mxCell>
        <mxCell id="60_dA6ctWiAmH7DqmOU7-46" value="&lt;div&gt;&lt;font style=&quot;color: rgb(255, 255, 255);&quot;&gt;BW=4MHz&lt;/font&gt;&lt;/div&gt;&lt;div&gt;&lt;font style=&quot;color: rgb(255, 255, 255);&quot;&gt;T=25Â°C&lt;/font&gt;&lt;/div&gt;&lt;font style=&quot;color: rgb(255, 255, 255);&quot;&gt;Thermal Noise =&amp;nbsp; -107dBm&lt;/font&gt;" style="strokeWidth=1;shadow=0;dashed=0;align=center;html=1;shape=mxgraph.mockup.text.textBox;fontColor=#666666;align=left;fontSize=17;spacingLeft=4;spacingTop=-3;whiteSpace=wrap;strokeColor=#666666;mainText=" parent="1" vertex="1">
          <mxGeometry x="150" y="40" width="220" height="80" as="geometry" />
        </mxCell>
        <mxCell id="60_dA6ctWiAmH7DqmOU7-48" value="&lt;div&gt;&lt;font style=&quot;color: rgb(255, 255, 255);&quot;&gt;BladeRF min sensitivy @60dB GI: ~ -85dBm&lt;/font&gt;&lt;/div&gt;&lt;div&gt;&lt;font style=&quot;color: rgb(255, 255, 255);&quot;&gt;BladeRF Noise Factor @2425MHz: 10dB&lt;/font&gt;&lt;/div&gt;&lt;div&gt;&lt;font style=&quot;color: rgb(255, 255, 255);&quot;&gt;Theoretical optimal FE Gain = -85-(-107) = 22dBm&amp;nbsp;&lt;/font&gt;&lt;/div&gt;" style="strokeWidth=1;shadow=0;dashed=0;align=center;html=1;shape=mxgraph.mockup.text.textBox;fontColor=#666666;align=left;fontSize=17;spacingLeft=4;spacingTop=-3;whiteSpace=wrap;strokeColor=#666666;mainText=" parent="1" vertex="1">
          <mxGeometry x="403" y="40" width="397" height="80" as="geometry" />
        </mxCell>
        <mxCell id="3_adnTZoo-hlLVgFGM4k-5" value="" style="edgeStyle=orthogonalEdgeStyle;rounded=0;orthogonalLoop=1;jettySize=auto;html=1;" parent="1" source="3_adnTZoo-hlLVgFGM4k-1" target="3_adnTZoo-hlLVgFGM4k-3" edge="1">
          <mxGeometry relative="1" as="geometry" />
        </mxCell>
        <mxCell id="3_adnTZoo-hlLVgFGM4k-1" value="GRF4142" style="verticalLabelPosition=middle;shadow=0;dashed=0;align=center;html=1;verticalAlign=middle;shape=mxgraph.electrical.abstract.amplifier;labelPosition=center;fontSize=5;" parent="1" vertex="1">
          <mxGeometry x="320" y="270" width="50" height="50" as="geometry" />
        </mxCell>
        <mxCell id="3_adnTZoo-hlLVgFGM4k-2" style="edgeStyle=orthogonalEdgeStyle;rounded=0;orthogonalLoop=1;jettySize=auto;html=1;exitX=1;exitY=0.6;exitDx=0;exitDy=0;exitPerimeter=0;entryX=0;entryY=0.5;entryDx=0;entryDy=0;entryPerimeter=0;" parent="1" source="60_dA6ctWiAmH7DqmOU7-32" target="3_adnTZoo-hlLVgFGM4k-1" edge="1">
          <mxGeometry relative="1" as="geometry">
            <Array as="points">
              <mxPoint x="290" y="276" />
              <mxPoint x="290" y="295" />
            </Array>
          </mxGeometry>
        </mxCell>
        <mxCell id="3_adnTZoo-hlLVgFGM4k-6" value="" style="edgeStyle=orthogonalEdgeStyle;rounded=0;orthogonalLoop=1;jettySize=auto;html=1;" parent="1" source="3_adnTZoo-hlLVgFGM4k-3" target="3_adnTZoo-hlLVgFGM4k-4" edge="1">
          <mxGeometry relative="1" as="geometry" />
        </mxCell>
        <mxCell id="3_adnTZoo-hlLVgFGM4k-3" value="B7506&amp;nbsp;" style="verticalLabelPosition=middle;shadow=0;dashed=0;align=center;html=1;verticalAlign=middle;shape=mxgraph.electrical.logic_gates.bandpass_filter;labelPosition=center;fontSize=5;" parent="1" vertex="1">
          <mxGeometry x="410" y="272" width="52" height="46" as="geometry" />
        </mxCell>
        <mxCell id="3_adnTZoo-hlLVgFGM4k-4" value="GRF4004" style="verticalLabelPosition=middle;shadow=0;dashed=0;align=center;html=1;verticalAlign=middle;shape=mxgraph.electrical.abstract.amplifier;labelPosition=center;fontSize=5;" parent="1" vertex="1">
          <mxGeometry x="497" y="270" width="50" height="50" as="geometry" />
        </mxCell>
        <mxCell id="3_adnTZoo-hlLVgFGM4k-8" value="" style="edgeStyle=orthogonalEdgeStyle;rounded=0;orthogonalLoop=1;jettySize=auto;html=1;" parent="1" source="3_adnTZoo-hlLVgFGM4k-9" target="3_adnTZoo-hlLVgFGM4k-11" edge="1">
          <mxGeometry relative="1" as="geometry" />
        </mxCell>
        <mxCell id="3_adnTZoo-hlLVgFGM4k-9" value="GRF2176" style="verticalLabelPosition=middle;shadow=0;dashed=0;align=center;html=1;verticalAlign=middle;shape=mxgraph.electrical.abstract.amplifier;labelPosition=center;fontSize=5;" parent="1" vertex="1">
          <mxGeometry x="332" y="340" width="50" height="50" as="geometry" />
        </mxCell>
        <mxCell id="3_adnTZoo-hlLVgFGM4k-10" value="" style="edgeStyle=orthogonalEdgeStyle;rounded=0;orthogonalLoop=1;jettySize=auto;html=1;" parent="1" source="3_adnTZoo-hlLVgFGM4k-11" edge="1">
          <mxGeometry relative="1" as="geometry">
            <mxPoint x="550" y="365" as="targetPoint" />
          </mxGeometry>
        </mxCell>
        <mxCell id="3_adnTZoo-hlLVgFGM4k-11" value="B7506&amp;nbsp;" style="verticalLabelPosition=middle;shadow=0;dashed=0;align=center;html=1;verticalAlign=middle;shape=mxgraph.electrical.logic_gates.bandpass_filter;labelPosition=center;fontSize=5;" parent="1" vertex="1">
          <mxGeometry x="444" y="342" width="52" height="46" as="geometry" />
        </mxCell>
        <mxCell id="3_adnTZoo-hlLVgFGM4k-14" value="NF = 0.7&lt;div&gt;G = 28.5&lt;/div&gt;" style="text;html=1;align=center;verticalAlign=middle;whiteSpace=wrap;rounded=0;" parent="1" vertex="1">
          <mxGeometry x="384" y="160" width="60" height="30" as="geometry" />
        </mxCell>
        <mxCell id="3_adnTZoo-hlLVgFGM4k-17" value="NF = 0.7&lt;div&gt;G = 28.5&lt;/div&gt;" style="text;html=1;align=center;verticalAlign=middle;whiteSpace=wrap;rounded=0;" parent="1" vertex="1">
          <mxGeometry x="480" y="230" width="60" height="30" as="geometry" />
        </mxCell>
        <mxCell id="3_adnTZoo-hlLVgFGM4k-18" style="edgeStyle=orthogonalEdgeStyle;rounded=0;orthogonalLoop=1;jettySize=auto;html=1;exitX=1;exitY=0.5;exitDx=0;exitDy=0;exitPerimeter=0;entryX=0;entryY=0.8;entryDx=0;entryDy=0;entryPerimeter=0;" parent="1" target="60_dA6ctWiAmH7DqmOU7-39" edge="1">
          <mxGeometry relative="1" as="geometry">
            <mxPoint x="552" y="365" as="sourcePoint" />
          </mxGeometry>
        </mxCell>
        <mxCell id="3_adnTZoo-hlLVgFGM4k-19" style="edgeStyle=orthogonalEdgeStyle;rounded=0;orthogonalLoop=1;jettySize=auto;html=1;entryX=0;entryY=0.6;entryDx=0;entryDy=0;entryPerimeter=0;" parent="1" source="3_adnTZoo-hlLVgFGM4k-4" target="60_dA6ctWiAmH7DqmOU7-39" edge="1">
          <mxGeometry relative="1" as="geometry">
            <Array as="points">
              <mxPoint x="590" y="297" />
              <mxPoint x="590" y="276" />
            </Array>
          </mxGeometry>
        </mxCell>
        <mxCell id="3_adnTZoo-hlLVgFGM4k-25" value="NF = 0.7&lt;div&gt;G = 33&lt;/div&gt;" style="text;html=1;align=center;verticalAlign=middle;whiteSpace=wrap;rounded=0;" parent="1" vertex="1">
          <mxGeometry x="310" y="390" width="60" height="30" as="geometry" />
        </mxCell>
        <mxCell id="3_adnTZoo-hlLVgFGM4k-28" value="NF = 0.9&lt;div&gt;G = 15.7&lt;/div&gt;" style="text;html=1;align=center;verticalAlign=middle;whiteSpace=wrap;rounded=0;" parent="1" vertex="1">
          <mxGeometry x="347" y="300" width="60" height="30" as="geometry" />
        </mxCell>
        <mxCell id="3_adnTZoo-hlLVgFGM4k-29" value="&lt;ul&gt;&lt;li&gt;&lt;font style=&quot;color: rgb(255, 255, 255);&quot;&gt;Voie 1:&amp;nbsp;&lt;/font&gt;&lt;/li&gt;&lt;ul&gt;&lt;li&gt;&lt;font style=&quot;color: rgb(255, 255, 255);&quot;&gt;NF = 1.16dB&lt;/font&gt;&lt;/li&gt;&lt;li&gt;&lt;font style=&quot;color: rgb(255, 255, 255);&quot;&gt;G =&amp;nbsp; 25.58dB&lt;/font&gt;&lt;/li&gt;&lt;/ul&gt;&lt;li&gt;&lt;font style=&quot;color: rgb(255, 255, 255);&quot;&gt;Voie 2:&amp;nbsp;&lt;/font&gt;&lt;/li&gt;&lt;ul&gt;&lt;li&gt;&lt;font style=&quot;color: rgb(255, 255, 255);&quot;&gt;&lt;span style=&quot;background-color: transparent;&quot;&gt;NF = 3.16dB&lt;/span&gt;&lt;/font&gt;&lt;/li&gt;&lt;li&gt;&lt;font style=&quot;color: rgb(255, 255, 255);&quot;&gt;&lt;span style=&quot;background-color: transparent;&quot;&gt;G =&amp;nbsp; 25.58dB&lt;/span&gt;&lt;/font&gt;&lt;/li&gt;&lt;/ul&gt;&lt;li&gt;&lt;font style=&quot;color: rgb(255, 255, 255);&quot;&gt;Voie 3:&amp;nbsp;&lt;/font&gt;&lt;/li&gt;&lt;ul&gt;&lt;li&gt;&lt;font style=&quot;color: rgb(255, 255, 255);&quot;&gt;&lt;span style=&quot;background-color: transparent;&quot;&gt;NF = 1.45dB&lt;/span&gt;&lt;/font&gt;&lt;/li&gt;&lt;li&gt;&lt;font style=&quot;color: rgb(255, 255, 255);&quot;&gt;&lt;span style=&quot;background-color: transparent;&quot;&gt;G =&amp;nbsp; 25.28dB&lt;/span&gt;&lt;/font&gt;&lt;/li&gt;&lt;/ul&gt;&lt;li&gt;&lt;font style=&quot;color: rgb(255, 255, 255);&quot;&gt;Voie 4:&amp;nbsp;&lt;/font&gt;&lt;/li&gt;&lt;ul&gt;&lt;li&gt;&lt;font style=&quot;color: rgb(255, 255, 255);&quot;&gt;&lt;span style=&quot;background-color: transparent;&quot;&gt;&amp;nbsp;&lt;/span&gt;&lt;span style=&quot;background-color: transparent;&quot;&gt;NF = 1.16dB(LG - 1.22);&amp;nbsp;&lt;/span&gt;&lt;/font&gt;&lt;/li&gt;&lt;li&gt;&lt;font style=&quot;color: rgb(255, 255, 255);&quot;&gt;&lt;span style=&quot;background-color: transparent;&quot;&gt;G =&amp;nbsp; 30.08dB (LG - 14dB)&lt;/span&gt;&lt;/font&gt;&lt;/li&gt;&lt;/ul&gt;&lt;/ul&gt;" style="strokeWidth=1;shadow=0;dashed=0;align=center;html=1;shape=mxgraph.mockup.text.textBox;fontColor=#666666;align=left;fontSize=17;spacingLeft=4;spacingTop=-3;whiteSpace=wrap;strokeColor=#666666;mainText=" parent="1" vertex="1">
          <mxGeometry x="180.5" y="430" width="467" height="290" as="geometry" />
        </mxCell>
        <mxCell id="3_adnTZoo-hlLVgFGM4k-30" value="NF = 0.95&lt;div&gt;G = 12.5&lt;/div&gt;" style="text;html=1;align=center;verticalAlign=middle;whiteSpace=wrap;rounded=0;" parent="1" vertex="1">
          <mxGeometry x="510" y="312" width="60" height="30" as="geometry" />
        </mxCell>
        <mxCell id="3_adnTZoo-hlLVgFGM4k-31" value="&lt;div&gt;NF = 2dB&lt;/div&gt;&lt;div&gt;IL =&amp;nbsp; -2dB&lt;/div&gt;" style="text;html=1;align=center;verticalAlign=middle;whiteSpace=wrap;rounded=0;" parent="1" vertex="1">
          <mxGeometry x="291" y="190" width="60" height="30" as="geometry" />
        </mxCell>
        <mxCell id="3_adnTZoo-hlLVgFGM4k-32" value="&lt;div&gt;NF = 2dB&lt;/div&gt;&lt;div&gt;IL =&amp;nbsp; -2dB&lt;/div&gt;" style="text;html=1;align=center;verticalAlign=middle;whiteSpace=wrap;rounded=0;" parent="1" vertex="1">
          <mxGeometry x="530" y="170" width="60" height="30" as="geometry" />
        </mxCell>
        <mxCell id="xQ0nRIWA_aSk0HieY_TN-1" value="&lt;div style=&quot;forced-color-adjust: none; box-shadow: none !important; color: rgb(255, 255, 255); font-family: Helvetica; font-size: 12px; font-style: normal; font-variant-ligatures: normal; font-variant-caps: normal; font-weight: 400; letter-spacing: normal; orphans: 2; text-align: center; text-indent: 0px; text-transform: none; widows: 2; word-spacing: 0px; -webkit-text-stroke-width: 0px; white-space: normal; background-color: rgb(27, 29, 30); text-decoration-thickness: initial; text-decoration-style: initial; text-decoration-color: initial;&quot;&gt;NF = 0.46dB&lt;/div&gt;&lt;div style=&quot;forced-color-adjust: none; box-shadow: none !important; color: rgb(255, 255, 255); font-family: Helvetica; font-size: 12px; font-style: normal; font-variant-ligatures: normal; font-variant-caps: normal; font-weight: 400; letter-spacing: normal; orphans: 2; text-align: center; text-indent: 0px; text-transform: none; widows: 2; word-spacing: 0px; -webkit-text-stroke-width: 0px; white-space: normal; background-color: rgb(27, 29, 30); text-decoration-thickness: initial; text-decoration-style: initial; text-decoration-color: initial;&quot;&gt;&lt;div style=&quot;forced-color-adjust: none; box-shadow: none !important;&quot;&gt;IL = -0.46dB&lt;/div&gt;&lt;/div&gt;" style="text;html=1;align=center;verticalAlign=middle;whiteSpace=wrap;rounded=0;" vertex="1" parent="1">
          <mxGeometry x="135" y="340" width="90" height="40" as="geometry" />
        </mxCell>
        <mxCell id="xQ0nRIWA_aSk0HieY_TN-2" value="&lt;div style=&quot;forced-color-adjust: none; box-shadow: none !important; color: rgb(255, 255, 255); font-family: Helvetica; font-size: 12px; font-style: normal; font-variant-ligatures: normal; font-variant-caps: normal; font-weight: 400; letter-spacing: normal; orphans: 2; text-align: center; text-indent: 0px; text-transform: none; widows: 2; word-spacing: 0px; -webkit-text-stroke-width: 0px; white-space: normal; background-color: rgb(27, 29, 30); text-decoration-thickness: initial; text-decoration-style: initial; text-decoration-color: initial;&quot;&gt;NF = 0.46dB&lt;/div&gt;&lt;div style=&quot;forced-color-adjust: none; box-shadow: none !important; color: rgb(255, 255, 255); font-family: Helvetica; font-size: 12px; font-style: normal; font-variant-ligatures: normal; font-variant-caps: normal; font-weight: 400; letter-spacing: normal; orphans: 2; text-align: center; text-indent: 0px; text-transform: none; widows: 2; word-spacing: 0px; -webkit-text-stroke-width: 0px; white-space: normal; background-color: rgb(27, 29, 30); text-decoration-thickness: initial; text-decoration-style: initial; text-decoration-color: initial;&quot;&gt;&lt;div style=&quot;forced-color-adjust: none; box-shadow: none !important;&quot;&gt;IL = -0.46dB&lt;/div&gt;&lt;/div&gt;" style="text;html=1;align=center;verticalAlign=middle;whiteSpace=wrap;rounded=0;" vertex="1" parent="1">
          <mxGeometry x="645" y="340" width="90" height="40" as="geometry" />
        </mxCell>
        <mxCell id="xQ0nRIWA_aSk0HieY_TN-3" value="&lt;div&gt;NF = 2dB&lt;/div&gt;&lt;div&gt;IL =&amp;nbsp; -2dB&lt;/div&gt;" style="text;html=1;align=center;verticalAlign=middle;whiteSpace=wrap;rounded=0;" vertex="1" parent="1">
          <mxGeometry x="440" y="390" width="60" height="30" as="geometry" />
        </mxCell>
      </root>
    </mxGraphModel>
  </diagram>
</mxfile>
